#N canvas 966 75 944 995 10;
#X obj 167 143 random 800;
#X obj 194 206 + 200;
#X floatatom 190 243 5 0 0 0 - - -;
#X obj 181 294 phasor~;
#X obj 188 422 dac~;
#X obj 280 135 random 800;
#X obj 281 207 + 200;
#X floatatom 277 244 5 0 0 0 - - -;
#X obj 268 295 phasor~;
#X obj 192 64 metro 400;
#X obj 166 9 tgl 15 0 empty empty empty 17 7 0 10 -262144 -1 -1 0 1
;
#X obj 184 351 *~ 0.1;
#X connect 0 0 1 0;
#X connect 1 0 2 0;
#X connect 2 0 3 0;
#X connect 3 0 11 0;
#X connect 5 0 6 0;
#X connect 6 0 7 0;
#X connect 7 0 8 0;
#X connect 8 0 11 0;
#X connect 9 0 0 0;
#X connect 9 0 5 0;
#X connect 10 0 9 0;
#X connect 11 0 4 0;
#X connect 11 0 4 1;
