#N canvas 965 74 946 997 10;
#X obj 508 90 notein;
#X floatatom 468 143 5 0 0 0 Note - -;
#X floatatom 562 143 5 0 0 0 Velocity - -;
#X floatatom 653 143 5 0 0 0 Channel - -;
#X obj 471 179 mtof;
#X obj 483 237 osc~;
#X obj 480 280 *~ 0.2;
#X obj 481 328 dac~;
#X floatatom 485 208 5 0 0 0 - - -;
#X obj 535 239 osc~;
#X connect 0 0 1 0;
#X connect 0 1 2 0;
#X connect 0 2 3 0;
#X connect 1 0 4 0;
#X connect 4 0 8 0;
#X connect 5 0 6 0;
#X connect 6 0 7 0;
#X connect 6 0 7 1;
#X connect 8 0 5 0;
#X connect 8 0 9 0;
#X connect 9 0 6 0;
