#N canvas 9 74 946 997 10;
#X obj 101 101 cnv 15 298 148 empty empty MIDI_IN 20 12 0 14 -233017
-66577 0;
#X obj 123 137 hsl 128 15 0 127 0 0 \$0-note-send \$0-note-recv Note:42
2 8 0 10 -99865 -1 -262144 4200 1;
#X obj 123 162 hsl 128 15 0 127 0 0 \$0-velocity-send \$0-velocity-recv
Velocity:0 2 8 0 10 -99865 -1 -262144 0 1;
#X obj 280 117 vsl 15 128 0 16384 0 0 \$0-pbend-send \$0-pbend-recv
PB:8192 0 -9 0 10 -99865 -1 -1 6350 1;
#X obj 342 117 vsl 15 128 0 127 0 0 \$0-mod-send \$0-mod-recv Mod:127
0 -9 0 10 -99865 -1 -1 12700 1;
#N canvas 965 74 946 997 send-receive 0;
#X obj 48 31 r \$0-note-send;
#X obj 48 87 s \$0-note-recv;
#X obj 159 31 r \$0-velocity-send;
#X obj 159 87 s \$0-velocity-recv;
#X msg 48 59 label Note:\$1;
#X msg 159 59 label Velocity:\$1;
#X obj 48 115 r \$0-pbend-send;
#X msg 48 143 label PB:\$1;
#X obj 48 171 s \$0-pbend-recv;
#X obj 159 115 r \$0-mod-send;
#X msg 159 143 label Mod:\$1;
#X obj 159 171 s \$0-mod-recv;
#X connect 0 0 4 0;
#X connect 2 0 5 0;
#X connect 4 0 1 0;
#X connect 5 0 3 0;
#X connect 6 0 7 0;
#X connect 7 0 8 0;
#X connect 9 0 10 0;
#X connect 10 0 11 0;
#X restore 408 625 pd send-receive;
#X obj 508 90 notein;
#X floatatom 468 143 5 0 0 0 Note - -;
#X floatatom 562 143 5 0 0 0 Velocity - -;
#X floatatom 653 143 5 0 0 0 Channel - -;
#X obj 193 118 nbx 2 14 1 16 0 0 empty empty Channel 0 -8 0 10 -99865
-1 -1 1 256;
#X obj 637 341 sel 1;
#X msg 639 379 1;
#X floatatom 686 375 5 0 0 0 - - -;
#X obj 686 405 t b;
#X msg 687 443 0;
#X obj 468 475 spigot 1;
#X obj 562 557 spigot 1;
#X obj 116 403 pack f f f f;
#X obj 108 443 outlet;
#X obj 277 344 t b f;
#X obj 215 319 t b f;
#X obj 162 319 t b f;
#X obj 798 253 bendin;
#X floatatom 856 317 5 0 0 0 Channel - -;
#X floatatom 760 314 5 0 0 0 Value - -;
#X obj 768 413 sel 1;
#X msg 770 451 1;
#X floatatom 817 447 5 0 0 0 - - -;
#X obj 817 477 t b;
#X msg 818 515 0;
#X obj 710 540 spigot 1;
#X obj 248 22 loadbang;
#X msg 275 50 8192;
#X floatatom 1030 305 5 0 0 0 Channel - -;
#X floatatom 934 302 5 0 0 0 Value - -;
#X obj 942 401 sel 1;
#X msg 944 439 1;
#X floatatom 991 435 5 0 0 0 - - -;
#X obj 991 465 t b;
#X msg 992 503 0;
#X obj 884 528 spigot 1;
#X obj 972 241 ctlin 1;
#X connect 1 0 18 0;
#X connect 2 0 22 0;
#X connect 3 0 21 0;
#X connect 4 0 20 0;
#X connect 6 0 7 0;
#X connect 6 1 8 0;
#X connect 6 2 9 0;
#X connect 7 0 16 0;
#X connect 8 0 17 0;
#X connect 9 0 11 0;
#X connect 10 0 11 1;
#X connect 10 0 26 1;
#X connect 10 0 36 1;
#X connect 11 0 12 0;
#X connect 11 1 13 0;
#X connect 12 0 16 1;
#X connect 12 0 17 1;
#X connect 13 0 14 0;
#X connect 14 0 15 0;
#X connect 15 0 16 1;
#X connect 15 0 17 1;
#X connect 16 0 1 0;
#X connect 17 0 2 0;
#X connect 18 0 19 0;
#X connect 20 0 18 0;
#X connect 20 1 18 3;
#X connect 21 0 18 0;
#X connect 21 1 18 2;
#X connect 22 0 18 0;
#X connect 22 1 18 1;
#X connect 23 0 25 0;
#X connect 23 1 24 0;
#X connect 24 0 26 0;
#X connect 25 0 31 0;
#X connect 26 0 27 0;
#X connect 26 1 28 0;
#X connect 27 0 31 1;
#X connect 28 0 29 0;
#X connect 29 0 30 0;
#X connect 30 0 31 1;
#X connect 31 0 3 0;
#X connect 32 0 10 0;
#X connect 32 0 33 0;
#X connect 33 0 3 0;
#X connect 34 0 36 0;
#X connect 35 0 41 0;
#X connect 36 0 37 0;
#X connect 36 1 38 0;
#X connect 37 0 41 1;
#X connect 38 0 39 0;
#X connect 39 0 40 0;
#X connect 40 0 41 1;
#X connect 41 0 4 0;
#X connect 42 0 35 0;
#X connect 42 1 34 0;
#X coords 0 -1 1 1 300 150 2 100 100;
