#N canvas 965 182 946 889 12;
#X obj 101 101 cnv 15 298 248 empty empty empty 20 12 0 14 -233017
-66577 0;
#X obj 661 348 inlet~ signal;
#X obj 690 582 *~;
#X obj 615 684 outlet~;
#X floatatom 339 119 5 1 5000 2 Duration - -;
#N canvas 965 182 946 889 adsr~ 1;
#X obj 20 11 inlet velocity;
#X floatatom 20 33 5 1000 5000 0 - - -;
#X obj 128 10 inlet duration;
#X floatatom 128 32 5 1000 5000 0 - - -;
#X obj 240 6 inlet attack;
#X floatatom 240 28 5 1000 5000 0 - - -;
#X floatatom 419 26 5 1000 5000 0 - - -;
#X obj 419 4 inlet sustain;
#X floatatom 332 27 5 1000 5000 0 - - -;
#X obj 332 5 inlet decay;
#X floatatom 522 25 5 1000 5000 0 - - -;
#X obj 522 3 inlet release;
#X obj 20 64 sel 0;
#X msg 24 276 0;
#X obj 97 148 f;
#X obj 92 126 delay 10;
#X msg 63 171 1;
#X obj 233 88 *;
#X obj 240 64 t b f;
#X floatatom 233 115 5 0 0 0 - - -;
#X obj 325 89 *;
#X obj 332 65 t b f;
#X floatatom 325 118 5 0 0 0 - - -;
#X obj 515 83 *;
#X obj 522 59 t b f;
#X floatatom 515 110 5 0 0 0 - - -;
#X obj 97 173 / 127;
#X obj 412 89 *;
#X obj 419 65 t b f;
#X floatatom 412 116 5 0 0 0 - - -;
#X obj 96 382 line~;
#X obj 95 419 outlet~;
#X floatatom 97 205 5 0 0 0 - - -;
#X obj 165 266 pack f f;
#X obj 287 385 spigot 0;
#X obj 254 269 delay 10;
#X obj 345 270 pack f f;
#X obj 347 202 f;
#X obj 455 281 pack f f;
#X obj 178 236 t f b;
#X obj 63 98 t b b b f;
#X obj 80 321 0 10;
#X obj 356 242 spigot 0;
#X connect 0 0 1 0;
#X connect 1 0 12 0;
#X connect 2 0 3 0;
#X connect 3 0 17 0;
#X connect 3 0 22 0;
#X connect 3 0 23 0;
#X connect 3 0 20 0;
#X connect 4 0 5 0;
#X connect 5 0 18 0;
#X connect 6 0 28 0;
#X connect 7 0 6 0;
#X connect 8 0 21 0;
#X connect 9 0 8 0;
#X connect 10 0 24 0;
#X connect 11 0 10 0;
#X connect 12 0 13 0;
#X connect 12 1 40 0;
#X connect 13 0 34 1;
#X connect 13 0 38 0;
#X connect 14 0 26 0;
#X connect 15 0 14 0;
#X connect 16 0 34 1;
#X connect 17 0 19 0;
#X connect 18 0 17 0;
#X connect 18 1 17 1;
#X connect 19 0 35 1;
#X connect 19 0 33 1;
#X connect 20 0 22 0;
#X connect 21 0 20 0;
#X connect 21 1 20 1;
#X connect 22 0 36 1;
#X connect 23 0 25 0;
#X connect 24 0 23 0;
#X connect 24 1 23 1;
#X connect 25 0 38 1;
#X connect 26 0 32 0;
#X connect 27 0 29 0;
#X connect 28 0 27 0;
#X connect 28 1 27 1;
#X connect 29 0 37 1;
#X connect 30 0 31 0;
#X connect 32 0 27 0;
#X connect 32 0 39 0;
#X connect 33 0 30 0;
#X connect 34 0 36 0;
#X connect 35 0 37 0;
#X connect 36 0 30 0;
#X connect 37 0 34 0;
#X connect 37 0 42 0;
#X connect 38 0 30 0;
#X connect 39 0 33 0;
#X connect 39 1 35 0;
#X connect 40 0 16 0;
#X connect 40 1 41 0;
#X connect 40 2 15 0;
#X connect 40 3 14 1;
#X connect 41 0 30 0;
#X restore 341 663 pd adsr~;
#X obj 119 173 vsl 15 128 0 1 0 0 empty empty Attack 0 -9 0 10 -262144
-1 -1 5500 1;
#X obj 170 173 vsl 15 128 0 1 0 0 empty empty Delay 0 -9 0 10 -262144
-1 -1 6400 1;
#X obj 225 173 vsl 15 128 0 1 0 0 empty empty Sustain 0 -9 0 10 -262144
-1 -1 8800 1;
#X obj 285 173 vsl 15 128 0 1 0 0 empty empty Release 0 -9 0 10 -262144
-1 -1 2900 1;
#X floatatom 119 319 5 0 0 0 - - -;
#X floatatom 170 319 5 0 0 0 - - -;
#X floatatom 224 319 5 0 0 0 - - -;
#X floatatom 282 319 5 0 0 0 - - -;
#N canvas 965 74 946 997 send-receive 0;
#X restore 124 41 pd send-receive;
#X obj 427 21 inlet MIDI;
#X obj 443 356 unpack f f f f;
#X obj 120 122 hsl 190 15 0 10000 0 0 empty empty empty -2 -8 0 10
-262144 -1 -1 18900 1;
#X connect 1 0 2 0;
#X connect 2 0 3 0;
#X connect 4 0 5 1;
#X connect 5 0 2 1;
#X connect 6 0 10 0;
#X connect 7 0 11 0;
#X connect 8 0 12 0;
#X connect 9 0 13 0;
#X connect 10 0 5 2;
#X connect 11 0 5 3;
#X connect 12 0 5 4;
#X connect 13 0 5 5;
#X connect 15 0 16 0;
#X connect 16 1 5 0;
#X connect 17 0 4 0;
#X coords 0 -1 1 1 300 250 1 100 100;
