#N canvas 965 74 946 997 12;
#X obj 101 101 cnv 15 298 248 empty empty empty 20 12 0 14 -233017
-66577 0;
#X obj 661 348 inlet~ signal;
#X obj 690 582 *~;
#X obj 615 684 outlet~;
#X floatatom 108 120 5 1 5000 2 Duration - -;
#N canvas 965 74 946 997 adsr~ 0;
#X obj 81 64 inlet velocity;
#X obj 240 62 inlet duration;
#X obj 402 56 inlet attack;
#X obj 521 56 inlet delay;
#X floatatom 402 101 5 0 0 0 - - -;
#X floatatom 521 101 5 0 0 0 - - -;
#X floatatom 648 101 5 0 0 0 - - -;
#X obj 648 56 inlet sustain;
#X floatatom 766 107 5 0 0 0 - - -;
#X obj 766 56 inlet release;
#X floatatom 81 99 5 0 0 0 - - -;
#X floatatom 240 98 5 0 0 0 - - -;
#X obj 80 140 sel 0;
#X msg 81 345 0;
#X obj 119 203 t b b f;
#X obj 250 323 f;
#X obj 149 272 delay 10;
#X msg 112 279 1;
#X obj 411 213 *;
#X obj 403 141 t b f;
#X floatatom 411 255 5 0 0 0 - - -;
#X obj 522 208 *;
#X obj 519 138 t b f;
#X floatatom 522 250 5 0 0 0 - - -;
#X obj 764 213 *;
#X obj 768 140 t b f;
#X floatatom 757 252 5 0 0 0 - - -;
#X obj 133 426 / 127;
#X obj 645 189 *;
#X obj 641 137 t b f;
#X floatatom 644 249 5 0 0 0 - - -;
#X obj 153 594 line~;
#X obj 135 632 outlet~;
#X floatatom 141 472 5 0 0 0 - - -;
#X text 57 473 peak level;
#X obj 376 381 spigot 0;
#X obj 510 351 spigot 0;
#X obj 138 537 pack f f;
#X obj 405 476 delay 10;
#X obj 369 437 t f b f;
#X obj 543 475 pack f f;
#X obj 591 424 f;
#X obj 672 465 pack f f;
#X connect 0 0 10 0;
#X connect 1 0 11 0;
#X connect 2 0 4 0;
#X connect 3 0 5 0;
#X connect 4 0 19 0;
#X connect 5 0 22 0;
#X connect 6 0 29 0;
#X connect 7 0 6 0;
#X connect 8 0 25 0;
#X connect 9 0 8 0;
#X connect 10 0 12 0;
#X connect 11 0 18 0;
#X connect 11 0 21 0;
#X connect 11 0 24 0;
#X connect 12 0 13 0;
#X connect 12 1 14 0;
#X connect 13 0 35 1;
#X connect 13 0 36 1;
#X connect 13 0 42 0;
#X connect 14 0 17 0;
#X connect 14 1 16 0;
#X connect 14 2 15 1;
#X connect 15 0 27 0;
#X connect 16 0 15 0;
#X connect 17 0 35 1;
#X connect 17 0 36 1;
#X connect 18 0 20 0;
#X connect 19 0 18 0;
#X connect 19 1 18 1;
#X connect 20 0 35 0;
#X connect 21 0 23 0;
#X connect 22 0 21 0;
#X connect 22 1 21 1;
#X connect 23 0 36 0;
#X connect 24 0 26 0;
#X connect 25 0 24 0;
#X connect 25 1 24 1;
#X connect 26 0 42 1;
#X connect 27 0 33 0;
#X connect 28 0 30 0;
#X connect 29 0 28 0;
#X connect 29 1 28 1;
#X connect 30 0 41 1;
#X connect 31 0 32 0;
#X connect 33 0 28 0;
#X connect 33 0 37 0;
#X connect 35 0 39 0;
#X connect 36 0 40 1;
#X connect 37 0 31 0;
#X connect 38 0 41 0;
#X connect 39 0 37 1;
#X connect 39 1 38 0;
#X connect 39 2 38 1;
#X connect 40 0 31 0;
#X connect 41 0 40 0;
#X connect 42 0 31 0;
#X restore 341 663 pd adsr~;
#X obj 119 173 vsl 15 128 0 1 0 0 empty empty Attack 0 -9 0 10 -262144
-1 -1 6800 1;
#X obj 170 173 vsl 15 128 0 1 0 0 empty empty Delay 0 -9 0 10 -262144
-1 -1 11400 1;
#X obj 225 173 vsl 15 128 0 1 0 0 empty empty Sustain 0 -9 0 10 -262144
-1 -1 8700 1;
#X obj 285 173 vsl 15 128 0 1 0 0 empty empty Release 0 -9 0 10 -262144
-1 -1 4300 1;
#X floatatom 119 319 5 0 0 0 - - -;
#X floatatom 170 319 5 0 0 0 - - -;
#X floatatom 224 319 5 0 0 0 - - -;
#X floatatom 282 319 5 0 0 0 - - -;
#N canvas 965 74 946 997 send-receive 0;
#X restore 124 41 pd send-receive;
#X obj 427 21 inlet MIDI;
#X obj 443 356 unpack f f f f;
#X connect 1 0 2 0;
#X connect 2 0 3 0;
#X connect 4 0 5 1;
#X connect 5 0 2 1;
#X connect 6 0 10 0;
#X connect 6 0 5 2;
#X connect 7 0 11 0;
#X connect 7 0 5 3;
#X connect 8 0 12 0;
#X connect 8 0 5 4;
#X connect 9 0 13 0;
#X connect 9 0 5 5;
#X connect 15 0 16 0;
#X connect 16 1 5 0;
#X coords 0 -1 1 1 300 250 1 100 100;
