#N canvas 9 74 1902 997 10;
#X obj 100 100 cnv 15 300 300 empty empty OSC_4 20 12 0 14 -233017
-66577 0;
#X obj 545 17 inlet;
#X obj 545 76 unpack f f f f;
#N canvas 965 74 946 997 sine 0;
#X obj 62 29 inlet note;
#X floatatom 62 77 5 0 0 0 - - -;
#X obj 163 31 inlet phase;
#X floatatom 163 53 5 0 0 0 - - -;
#X obj 62 103 osc~;
#X obj 63 131 outlet~;
#X obj 62 53 mtof;
#X connect 0 0 6 0;
#X connect 1 0 4 0;
#X connect 2 0 3 0;
#X connect 3 0 4 1;
#X connect 4 0 5 0;
#X connect 6 0 1 0;
#X restore 508 166 pd sine;
#N canvas 965 74 946 997 triangle 0;
#X obj 170 220 expr~ abs($v1 - 0.5) * 4 - 1;
#X obj 176 149 mtof;
#X obj 174 179 phasor~;
#X obj 245 105 inlet phase;
#X floatatom 248 141 5 0 0 0 - - -;
#X obj 149 77 inlet note;
#X obj 172 268 outlet~;
#X connect 0 0 6 0;
#X connect 1 0 2 0;
#X connect 2 0 0 0;
#X connect 3 0 4 0;
#X connect 4 0 2 1;
#X connect 5 0 1 0;
#X restore 599 166 pd triangle;
#N canvas 9 74 1902 997 pulse 0;
#X obj 85 130 phasor~;
#X obj 50 306 outlet~;
#X obj 30 30 inlet note;
#X obj 64 82 mtof;
#X obj 155 27 inlet phase;
#X floatatom 151 65 5 0 0 0 - - -;
#X msg 107 28 440;
#X obj 86 175 expr~ ($v1 < $v2) * 2 - 1;
#X obj 345 36 inlet pwm;
#X obj 303 77 pack f 50;
#X obj 301 117 line~;
#X connect 0 0 7 0;
#X connect 2 0 3 0;
#X connect 3 0 0 0;
#X connect 4 0 5 0;
#X connect 5 0 0 1;
#X connect 6 0 3 0;
#X connect 7 0 1 0;
#X connect 8 0 9 0;
#X connect 9 0 10 0;
#X connect 10 0 7 1;
#X restore 683 165 pd pulse;
#N canvas 9 74 1902 997 sawtooth 0;
#X obj 82 30 inlet;
#X floatatom 82 52 5 0 0 0 - - -;
#X obj 82 94 phasor~;
#X obj 82 160 +~ 1;
#X obj 81 182 outlet~;
#X obj 148 36 inlet phase;
#X floatatom 149 59 5 0 0 0 - - -;
#X obj 82 72 mtof;
#X obj 82 138 *~ -2;
#X connect 0 0 1 0;
#X connect 1 0 7 0;
#X connect 2 0 8 0;
#X connect 3 0 4 0;
#X connect 5 0 6 0;
#X connect 6 0 2 1;
#X connect 7 0 2 0;
#X connect 8 0 3 0;
#X restore 775 164 pd sawtooth;
#X obj 106 153 vradio 15 1 0 4 \$0-wave-send \$0-wave-recv Waveform
0 -8 0 10 -99865 -258113 -1 2;
#X obj 623 622 sel 0 1 2 3;
#X obj 515 286 *~;
#X obj 527 214 pack f 50;
#X obj 599 275 *~;
#X obj 618 214 pack f 50;
#X obj 683 280 *~;
#X obj 702 219 pack f 50;
#X obj 774 280 *~;
#X obj 793 219 pack f 50;
#N canvas 0 50 450 250 (subpatch) 0;
#X array \$0-display 100 float 5;
#A 0 -0.2 -0.2 -0.2 -0.2 -0.2 -0.2 -0.2 -0.2 -0.2 -0.2 -0.2 -0.2 -0.2
-0.2 -0.2 -0.2 -0.2 -0.2 -0.2 -0.2 -0.2 -0.2 -0.2 -0.2 -0.2 -0.2 -0.2
-0.2 -0.2 -0.2 -0.2 -0.2 -0.2 -0.2 -0.2 -0.2 -0.2 -0.2 -0.2 -0.2 -0.2
-0.2 -0.2 -0.2 -0.2 -0.2 -0.2 -0.2 -0.2 -0.2 -0.2 -0.2 -0.2 -0.2 -0.2
-0.2 -0.2 -0.2 -0.2 -0.2 -0.2 -0.2 -0.2 -0.2 -0.2 -0.2 -0.2 -0.2 -0.2
-0.2 -0.2 -0.2 -0.2 -0.2 -0.2 -0.2 -0.2 -0.2 -0.2 -0.2 -0.2 -0.2 -0.2
-0.2 -0.2 -0.2 -0.2 -0.2 -0.2 -0.2 -0.2 -0.2 -0.2 -0.2 -0.2 -0.2 -0.2
-0.2 -0.2 -0.2;
#X coords 0 1 99 -1 200 140 2 0 0;
#X restore 166 151 graph;
#X obj 527 237 line~;
#X obj 618 237 line~;
#X obj 702 242 line~;
#X obj 793 242 line~;
#X msg 147 874 1;
#X msg 147 899 0;
#X msg 147 924 0;
#X msg 147 949 0;
#X msg 279 922 0;
#X msg 280 947 0;
#X msg 485 903 0;
#X msg 484 955 0;
#X msg 647 898 0;
#X msg 647 923 0;
#X msg 279 872 0;
#X msg 279 897 1;
#X msg 485 878 0;
#X msg 485 928 1;
#X msg 647 873 0;
#X msg 650 949 1;
#X obj 521 689 t b b b b;
#X obj 593 691 t b b b b;
#X obj 804 699 t b b b b;
#X obj 683 691 t b b b b;
#X obj 701 467 metro 100;
#X obj 702 428 tgl 15 0 empty empty empty 17 7 0 10 -262144 -1 -1 1
1;
#X obj 699 508 tabwrite~ \$0-display;
#X msg 755 113 0.5;
#X obj 168 310 hsl 128 15 0 127 0 0 empty empty Frequency -2 -8 0 10
-262144 -1 -1 0 1;
#X floatatom 310 308 5 0 0 0 - - -;
#X obj 1005 49 loadbang;
#X obj 467 382 *~;
#X obj 424 219 sel 0 1;
#X msg 414 255 0;
#X msg 421 288 0.2;
#X obj 168 343 hsl 129 15 0 1 0 0 empty empty Phase -2 -8 0 10 -262144
-1 -1 6300 0;
#X obj 167 378 hsl 128 15 0.1 1 0 0 empty empty Pulse_Width_Modulation
-2 -8 0 10 -262144 -1 -1 5644 1;
#X floatatom 307 341 5 0 0 0 - - -;
#X floatatom 307 376 5 0 0 0 - - -;
#X obj 361 116 vradio 15 1 0 2 empty empty On/Off 0 -8 0 10 -262144
-1 -1 1;
#X obj 740 585 outlet~;
#X connect 1 0 2 0;
#X connect 2 0 3 0;
#X connect 2 0 4 0;
#X connect 2 0 5 0;
#X connect 2 0 46 0;
#X connect 3 0 9 0;
#X connect 4 0 11 0;
#X connect 5 0 13 0;
#X connect 6 0 15 0;
#X connect 7 0 8 0;
#X connect 8 0 38 0;
#X connect 8 1 39 0;
#X connect 8 2 41 0;
#X connect 8 3 40 0;
#X connect 9 0 49 0;
#X connect 10 0 18 0;
#X connect 11 0 49 0;
#X connect 12 0 19 0;
#X connect 13 0 49 0;
#X connect 14 0 20 0;
#X connect 15 0 49 0;
#X connect 16 0 21 0;
#X connect 18 0 9 1;
#X connect 19 0 11 1;
#X connect 20 0 13 1;
#X connect 21 0 15 1;
#X connect 22 0 10 0;
#X connect 23 0 12 0;
#X connect 24 0 14 0;
#X connect 25 0 16 0;
#X connect 26 0 14 0;
#X connect 27 0 16 0;
#X connect 28 0 12 0;
#X connect 29 0 16 0;
#X connect 30 0 12 0;
#X connect 31 0 14 0;
#X connect 32 0 10 0;
#X connect 33 0 12 0;
#X connect 34 0 10 0;
#X connect 35 0 14 0;
#X connect 36 0 10 0;
#X connect 37 0 16 0;
#X connect 38 0 22 0;
#X connect 38 1 23 0;
#X connect 38 2 24 0;
#X connect 38 3 25 0;
#X connect 39 0 32 0;
#X connect 39 1 33 0;
#X connect 39 2 26 0;
#X connect 39 3 27 0;
#X connect 40 0 36 0;
#X connect 40 1 30 0;
#X connect 40 2 31 0;
#X connect 40 3 37 0;
#X connect 41 0 34 0;
#X connect 41 1 28 0;
#X connect 41 2 35 0;
#X connect 41 3 29 0;
#X connect 42 0 44 0;
#X connect 43 0 42 0;
#X connect 45 0 5 2;
#X connect 45 0 54 0;
#X connect 46 0 47 0;
#X connect 47 0 3 0;
#X connect 47 0 4 0;
#X connect 47 0 5 0;
#X connect 47 0 6 0;
#X connect 48 0 43 0;
#X connect 48 0 45 0;
#X connect 48 0 22 0;
#X connect 48 0 23 0;
#X connect 48 0 24 0;
#X connect 48 0 25 0;
#X connect 49 0 44 0;
#X connect 49 0 58 0;
#X connect 50 0 51 0;
#X connect 50 1 52 0;
#X connect 51 0 49 1;
#X connect 52 0 49 1;
#X connect 53 0 55 0;
#X connect 54 0 56 0;
#X connect 55 0 3 1;
#X connect 55 0 4 1;
#X connect 55 0 5 1;
#X connect 55 0 6 1;
#X connect 56 0 5 2;
#X connect 57 0 50 0;
#X coords 0 -1 1 1 300 300 1 100 100;
