#N canvas 9 74 1902 997 10;
#X obj 346 260 oscillatormodule;
#X obj 285 624 adsr;
#X obj 239 47 midi_module;
#X obj 340 913 *~ 0.2;
#X obj 363 962 dac~;
#X connect 0 0 1 1;
#X connect 1 0 3 0;
#X connect 2 0 0 0;
#X connect 2 0 1 0;
#X connect 3 0 4 0;
#X connect 3 0 4 1;
