#N canvas 9 92 1902 877 10;
#X obj 11 11 cnv 15 300 300 empty empty OSC_4 20 12 0 14 -233017 -66577
0;
#X obj 361 31 inlet;
#X obj 361 90 unpack f f f f;
#N canvas 965 74 946 895 sine 0;
#X obj 62 29 inlet note;
#X floatatom 62 77 5 0 0 0 - - -;
#X obj 163 31 inlet phase;
#X floatatom 163 53 5 0 0 0 - - -;
#X obj 62 103 osc~;
#X obj 63 131 outlet~;
#X obj 62 53 mtof;
#X connect 0 0 6 0;
#X connect 1 0 4 0;
#X connect 2 0 3 0;
#X connect 3 0 4 1;
#X connect 4 0 5 0;
#X connect 6 0 1 0;
#X restore 355 180 pd sine;
#X msg 482 90 440;
#N canvas 9 92 1902 877 triangle 1;
#X obj 170 220 expr~ abs($v1 - 0.5) * 4 - 1;
#X obj 176 149 mtof;
#X obj 174 179 phasor~;
#X obj 245 105 inlet phase;
#X floatatom 248 141 5 0 0 0 - - -;
#X obj 149 77 inlet note;
#X obj 172 268 outlet~;
#X connect 0 0 6 0;
#X connect 1 0 2 0;
#X connect 2 0 0 0;
#X connect 3 0 4 0;
#X connect 4 0 2 1;
#X connect 5 0 1 0;
#X restore 415 180 pd triangle;
#N canvas 965 74 946 895 pulse 0;
#X obj 85 130 phasor~;
#X obj 86 175 expr~ ($v1 < $v2) * 2 - 1;
#X obj 82 221 outlet~;
#X obj 30 30 inlet note;
#X obj 64 82 mtof;
#X obj 155 27 inlet phase;
#X floatatom 151 65 5 0 0 0 - - -;
#X connect 0 0 1 0;
#X connect 1 0 2 0;
#X connect 3 0 4 0;
#X connect 4 0 0 0;
#X connect 5 0 6 0;
#X connect 6 0 0 1;
#X restore 499 179 pd pulse;
#N canvas 965 74 946 895 sawtooth 0;
#X obj 147 295 expr~ ($v1 * -2) + 1;
#X obj 149 354 outlet~;
#X obj 116 188 inlet note;
#X obj 242 190 inlet phase;
#X obj 146 256 phasor~;
#X connect 0 0 1 0;
#X connect 2 0 4 0;
#X connect 3 0 4 1;
#X connect 4 0 0 0;
#X restore 562 180 pd sawtooth;
#X obj 20 69 vradio 15 1 0 4 empty empty empty 0 -8 0 10 -262144 -1
-1 0;
#X obj 19 340 sel 0 1 2 3;
#X obj 324 289 *~;
#X obj 467 382 *~ 0.2;
#X obj 343 228 pack f 50;
#X obj 343 251 line;
#X obj 415 289 *~;
#X obj 434 228 pack f 50;
#X obj 434 251 line;
#X obj 499 294 *~;
#X obj 518 233 pack f 50;
#X obj 518 256 line;
#X obj 590 294 *~;
#X obj 609 233 pack f 50;
#X obj 609 256 line;
#X connect 1 0 2 0;
#X connect 2 0 3 0;
#X connect 2 0 5 0;
#X connect 2 0 6 0;
#X connect 2 0 7 0;
#X connect 3 0 10 0;
#X connect 4 0 3 0;
#X connect 4 0 7 0;
#X connect 4 0 6 0;
#X connect 4 0 5 0;
#X connect 5 0 14 0;
#X connect 6 0 17 0;
#X connect 7 0 20 0;
#X connect 8 0 9 0;
#X connect 10 0 11 0;
#X connect 12 0 13 0;
#X connect 13 0 10 1;
#X connect 14 0 11 0;
#X connect 15 0 16 0;
#X connect 16 0 14 1;
#X connect 17 0 11 0;
#X connect 18 0 19 0;
#X connect 19 0 17 1;
#X connect 20 0 11 0;
#X connect 21 0 22 0;
#X connect 22 0 20 1;
